<svg width="673" height="670" viewBox="0 0 673 670" fill="none" xmlns="http://www.w3.org/2000/svg">
<g clip-path="url(#clip0_1_2)">
<rect width="672.129" height="669.164" fill="url(#paint0_linear_1_2)"/>
<g filter="url(#filter0_d_1_2)">
<path d="M167.23 452.944H304.899C328.222 452.944 347.129 471.851 347.129 495.174V605.607C347.129 628.93 328.222 647.837 304.899 647.837H167.23C143.907 647.837 125 628.93 125 605.607V495.174C125 471.851 143.907 452.944 167.23 452.944Z" fill="url(#paint1_linear_1_2)" fill-opacity="0.86"/>
<path d="M124 605.607V495.174C124 471.337 143.393 451.944 167.23 451.944H304.899C328.736 451.944 348.129 471.337 348.129 495.174V605.607C348.129 629.444 328.736 648.836 304.899 648.836H167.23C143.393 648.836 124 629.444 124 605.607ZM167.23 453.944C144.496 453.944 126 472.44 126 495.174V605.607C126 628.341 144.496 646.836 167.23 646.836H304.899C327.633 646.836 346.129 628.341 346.129 605.607V495.174C346.129 472.44 327.633 453.944 304.899 453.944H167.23Z" fill="url(#paint2_linear_1_2)" fill-opacity="0.86"/>
<path d="M218.701 501.297H249.536L217.526 596.14C216.851 598.138 214.977 599.484 212.868 599.484H188.871C186.16 599.485 183.962 597.287 183.961 594.576C183.961 594.042 184.048 593.512 184.219 593.007L214.042 504.641C214.716 502.642 216.591 501.296 218.701 501.295L218.701 501.297Z" fill="#6C63FF"/>
<path d="M263.509 564.911H214.612C213.362 564.91 212.347 565.922 212.346 567.172C212.345 567.801 212.606 568.401 213.066 568.83L244.487 598.157C245.402 599.01 246.606 599.485 247.857 599.484H275.545L263.509 564.911Z" fill="#7F14E9"/>
<path d="M218.701 501.297C216.566 501.288 214.674 502.67 214.031 504.706L184.256 592.926C183.341 595.475 184.666 598.282 187.215 599.196C187.75 599.388 188.315 599.486 188.884 599.484H213.501C215.367 599.151 216.91 597.839 217.539 596.05L223.477 578.55L244.687 598.333C245.576 599.068 246.691 599.475 247.844 599.484H275.429L263.331 564.911L228.062 564.92L249.648 501.297L218.701 501.297Z" fill="#7E6CED"/>
<path d="M258.086 504.636C257.412 502.64 255.54 501.296 253.434 501.297H219.068C221.174 501.297 223.046 502.64 223.72 504.636L253.544 593.005C254.411 595.575 253.032 598.36 250.462 599.228C249.956 599.398 249.426 599.485 248.892 599.485H283.259C285.971 599.485 288.169 597.286 288.168 594.574C288.168 594.041 288.081 593.511 287.91 593.005L258.086 504.636Z" fill="#5D99FC"/>
</g>
<g filter="url(#filter1_d_1_2)">
<path d="M43.23 206.944H180.899C204.222 206.944 223.129 225.851 223.129 249.174V359.607C223.129 382.93 204.222 401.837 180.899 401.837H43.23C19.9071 401.837 1.00006 382.93 1.00006 359.607V249.174C1.00006 225.851 19.9071 206.944 43.23 206.944Z" fill="url(#paint3_linear_1_2)"/>
<path d="M0 359.607V249.175C0 225.338 19.3931 205.945 43.23 205.945H180.899C204.736 205.945 224.129 225.338 224.129 249.175V359.607C224.129 383.444 204.736 402.837 180.899 402.837H43.23C19.3931 402.837 0 383.444 0 359.607ZM43.23 207.945C20.4956 207.945 2 226.44 2 249.175V359.607C2 382.342 20.4956 400.837 43.23 400.837H180.899C203.633 400.837 222.129 382.342 222.129 359.607V249.175C222.129 226.44 203.633 207.945 180.899 207.945L43.23 207.945Z" fill="url(#paint4_linear_1_2)"/>
<path d="M84.5689 306.08C84.5689 307.631 84.7366 308.889 85.0299 309.811C85.3652 310.733 85.7844 311.739 86.3711 312.828C86.5807 313.164 86.6645 313.499 86.6645 313.792C86.6645 314.211 86.413 314.63 85.8682 315.05L83.2277 316.81C82.8505 317.061 82.4733 317.187 82.138 317.187C81.7189 317.187 81.2998 316.977 80.8807 316.6C80.2939 315.972 79.791 315.301 79.3719 314.63C78.9527 313.918 78.5336 313.122 78.0726 312.158C74.8035 316.013 70.6961 317.941 65.7506 317.941C62.23 317.941 59.4219 316.936 57.3682 314.924C55.3146 312.912 54.2668 310.23 54.2668 306.877C54.2668 303.314 55.5241 300.422 58.0807 298.243C60.6373 296.063 64.0322 294.974 68.3491 294.974C69.7741 294.974 71.241 295.1 72.7917 295.309C74.3424 295.519 75.9351 295.854 77.6116 296.231V293.172C77.6116 289.986 76.941 287.765 75.6417 286.466C74.3005 285.166 72.0373 284.538 68.8101 284.538C67.3432 284.538 65.8344 284.705 64.2836 285.083C62.7329 285.46 61.2241 285.921 59.7572 286.508C59.0866 286.801 58.5836 286.969 58.2903 287.053C57.9969 287.136 57.7873 287.178 57.6197 287.178C57.0329 287.178 56.7395 286.759 56.7395 285.879V283.825C56.7395 283.155 56.8233 282.652 57.0329 282.358C57.2425 282.065 57.6197 281.772 58.2064 281.478C59.6733 280.724 61.4336 280.095 63.4873 279.592C65.541 279.047 67.7204 278.796 70.0255 278.796C75.013 278.796 78.6593 279.927 81.0064 282.191C83.3115 284.454 84.4851 287.891 84.4851 292.501V306.08L84.5689 306.08ZM67.5528 312.451C68.9359 312.451 70.3608 312.2 71.8697 311.697C73.3785 311.194 74.7197 310.272 75.8513 309.014C76.5219 308.218 77.0248 307.338 77.2763 306.332C77.5277 305.326 77.6954 304.111 77.6954 302.686V300.925C76.48 300.632 75.1807 300.38 73.8395 300.213C72.4983 300.045 71.1991 299.961 69.8998 299.961C67.0917 299.961 65.0381 300.506 63.655 301.638C62.2719 302.769 61.6013 304.362 61.6013 306.458C61.6013 308.428 62.1042 309.894 63.152 310.9C64.1579 311.948 65.6248 312.451 67.5528 312.451ZM101.208 316.977C100.453 316.977 99.9505 316.852 99.6152 316.558C99.2799 316.307 98.9865 315.72 98.7351 314.924L88.8858 282.526C88.6343 281.688 88.5086 281.143 88.5086 280.85C88.5086 280.179 88.8439 279.802 89.5145 279.802H93.6218C94.4182 279.802 94.963 279.928 95.2564 280.221C95.5917 280.472 95.8432 281.059 96.0946 281.855L103.136 309.601L109.674 281.855C109.884 281.017 110.135 280.472 110.47 280.221C110.806 279.969 111.392 279.802 112.147 279.802H115.5C116.296 279.802 116.841 279.928 117.176 280.221C117.512 280.472 117.805 281.059 117.973 281.855L124.595 309.936L131.845 281.855C132.097 281.017 132.39 280.472 132.684 280.221C133.019 279.969 133.564 279.802 134.318 279.802H138.216C138.886 279.802 139.264 280.137 139.264 280.85C139.264 281.059 139.222 281.269 139.18 281.52C139.138 281.772 139.054 282.107 138.886 282.568L128.786 314.966C128.534 315.804 128.241 316.349 127.906 316.6C127.57 316.852 127.025 317.019 126.313 317.019H122.709C121.912 317.019 121.367 316.894 121.032 316.6C120.697 316.307 120.403 315.762 120.236 314.924L113.739 287.891L107.285 314.882C107.075 315.72 106.824 316.265 106.489 316.558C106.153 316.852 105.567 316.977 104.812 316.977L101.208 316.977ZM155.064 318.109C152.885 318.109 150.706 317.858 148.61 317.355C146.514 316.852 144.88 316.307 143.79 315.678C143.12 315.301 142.659 314.882 142.491 314.505C142.323 314.127 142.239 313.708 142.239 313.331V311.194C142.239 310.314 142.575 309.894 143.203 309.894C143.455 309.894 143.706 309.936 143.958 310.02C144.209 310.104 144.586 310.272 145.006 310.439C146.431 311.068 147.981 311.571 149.616 311.906C151.292 312.241 152.927 312.409 154.603 312.409C157.244 312.409 159.297 311.948 160.722 311.026C162.147 310.104 162.902 308.763 162.902 307.044C162.902 305.871 162.525 304.907 161.77 304.111C161.016 303.314 159.591 302.602 157.537 301.931L151.46 300.045C148.4 299.081 146.137 297.656 144.754 295.77C143.371 293.926 142.659 291.872 142.659 289.693C142.659 287.933 143.036 286.382 143.79 285.041C144.545 283.7 145.55 282.526 146.808 281.604C148.065 280.64 149.49 279.928 151.167 279.425C152.843 278.922 154.603 278.712 156.447 278.712C157.37 278.712 158.334 278.754 159.256 278.88C160.22 279.005 161.1 279.173 161.98 279.341C162.818 279.55 163.614 279.76 164.369 280.011C165.123 280.263 165.71 280.514 166.129 280.766C166.716 281.101 167.135 281.436 167.386 281.814C167.638 282.149 167.764 282.61 167.764 283.197V285.167C167.764 286.047 167.428 286.508 166.8 286.508C166.464 286.508 165.92 286.34 165.207 286.005C162.818 284.915 160.136 284.37 157.16 284.37C154.771 284.37 152.885 284.747 151.586 285.544C150.286 286.34 149.616 287.555 149.616 289.274C149.616 290.447 150.035 291.453 150.873 292.25C151.711 293.046 153.262 293.842 155.484 294.555L161.435 296.441C164.453 297.405 166.632 298.746 167.931 300.464C169.231 302.183 169.859 304.153 169.859 306.332C169.859 308.134 169.482 309.769 168.77 311.194C168.015 312.619 167.009 313.876 165.71 314.882C164.411 315.93 162.86 316.684 161.058 317.229C159.172 317.816 157.202 318.109 155.064 318.109Z" fill="#252F3E"/>
<path fill-rule="evenodd" clip-rule="evenodd" d="M162.986 338.478C149.197 348.663 129.163 354.069 111.937 354.069C87.7961 354.069 66.044 345.142 49.6146 330.305C48.3153 329.132 49.4888 327.539 51.0396 328.461C68.8101 338.772 90.73 345.016 113.404 345.016C128.702 345.016 145.509 341.831 160.974 335.293C163.279 334.245 165.249 336.802 162.986 338.478Z" fill="#5FCF5D"/>
<path fill-rule="evenodd" clip-rule="evenodd" d="M168.728 331.94C166.967 329.677 157.076 330.85 152.592 331.395C151.25 331.563 151.041 330.389 152.256 329.509C160.136 323.977 173.086 325.569 174.595 327.413C176.104 329.3 174.176 342.25 166.8 348.453C165.668 349.417 164.578 348.914 165.081 347.657C166.758 343.508 170.488 334.161 168.728 331.94Z" fill="#5FCF5D"/>
</g>
<path d="M428.43 280.491C427.43 279.491 419.43 258.491 419.43 258.491L400.43 257.491L391.737 277.987L428.43 280.491Z" fill="#B5D2BF"/>
<path d="M401.474 267.166C415.599 267.166 427.05 255.715 427.05 241.59C427.05 227.465 415.599 216.015 401.474 216.015C387.35 216.015 375.899 227.465 375.899 241.59C375.899 255.715 387.35 267.166 401.474 267.166Z" fill="#B5D2BF"/>
<path d="M449.93 418.991L458.93 448.991L434.93 622.991H418.682L409.93 491.991L399.93 536.991L450.93 601.991L437.93 616.991L364.43 545.491L365.93 434.991L371.93 417.991L449.93 418.991Z" fill="url(#paint5_linear_1_2)"/>
<path d="M422.916 262.6L420.919 262.698C420.919 262.698 419.133 246.767 418.085 245.817C417.037 244.868 415.137 246.964 415.137 246.964C415.137 246.964 406.901 242.364 406.655 237.37C406.409 232.376 406.212 228.381 403.216 228.528C400.219 228.676 383.437 233.507 379.442 233.704C375.447 233.901 369.109 227.205 375.806 220.868C382.502 214.53 388.396 212.238 389.346 211.19C390.295 210.142 396.547 205.829 402.01 209.565C407.472 213.3 414.463 212.956 414.463 212.956C414.463 212.956 427.595 215.313 425.893 221.404C424.19 227.495 430.774 239.185 428.072 245.325C425.371 251.466 422.916 262.6 422.916 262.6Z" fill="#020110"/>
<path d="M417.93 619.991L435.93 621.991L437.93 654.991C437.93 654.991 436.93 670.991 419.93 668.991C402.93 666.991 407.93 650.991 407.93 650.991L417.93 619.991Z" fill="#2F2E41"/>
<path d="M441.43 596.491C441.43 596.491 454.43 590.491 456.43 597.491L460.43 611.491C460.43 611.491 460.43 625.491 461.43 626.491C462.43 627.491 481.43 653.491 464.43 667.491C464.43 667.491 455.43 668.491 450.43 654.491C445.43 640.491 430.43 626.491 430.43 626.491C430.43 626.491 427.525 619.491 432.478 619.991C437.43 620.491 444.43 608.491 442.43 604.491C440.43 600.491 441.43 596.491 441.43 596.491Z" fill="#2F2E41"/>
<path d="M276.329 465.845C271.676 463.886 270.401 456.371 273.481 449.058C274.672 446.12 276.548 443.51 278.954 441.445L282.548 433.202L282.42 433.115L292.753 391.933C295.156 382.357 301.771 374.279 310.856 370.415C316.26 368.117 321.388 367.701 322.879 373.208C325.354 382.346 309.237 411.78 299.52 428.341L291.949 446.919C292.153 450.083 291.597 453.251 290.326 456.156C287.248 463.467 280.981 467.805 276.329 465.845Z" fill="#B5D2BF"/>
<path d="M392.43 274.491L425.43 275.491L457.43 289.491L452.43 372.491C452.43 372.491 458.43 391.491 455.43 394.491C452.43 397.491 455.43 410.94 453.43 411.215C451.43 411.491 453.43 425.955 453.43 425.955C453.43 425.955 425.43 416.491 401.43 422.491C377.43 428.491 369.43 418.491 369.43 418.491C369.43 418.491 363.43 394.491 363.43 389.491V287.247L392.43 274.491Z" fill="url(#paint6_linear_1_2)"/>
<path d="M368.93 286.991C368.93 286.991 354.93 282.991 347.93 292.991C340.93 302.991 336.93 302.991 336.93 315.991C336.93 315.991 295.93 373.991 297.93 379.991L288.43 395.491L312.43 408.491C312.43 408.491 320.93 399.991 320.93 391.991C320.93 383.991 344.93 361.991 344.93 361.991C344.93 361.991 365.93 334.991 366.93 324.991C367.93 314.991 368.93 286.991 368.93 286.991Z" fill="url(#paint7_linear_1_2)"/>
<g filter="url(#filter2_d_1_2)">
<path d="M492.23 470.944H629.899C653.222 470.944 672.129 489.851 672.129 513.174V623.607C672.129 646.93 653.222 665.837 629.899 665.837H492.23C468.907 665.837 450 646.93 450 623.607V513.174C450 489.851 468.907 470.944 492.23 470.944Z" fill="url(#paint8_linear_1_2)"/>
<path d="M448 622.607V512.175C448 488.338 467.393 468.945 491.23 468.945H628.899C652.736 468.945 672.129 488.338 672.129 512.175V622.607C672.129 646.444 652.736 665.837 628.899 665.837H491.23C467.393 665.837 448 646.444 448 622.607ZM491.23 470.945C468.496 470.945 450 489.44 450 512.175V622.607C450 645.342 468.496 663.837 491.23 663.837H628.899C651.633 663.837 670.129 645.342 670.129 622.607V512.175C670.129 489.44 651.633 470.945 628.899 470.945H491.23Z" fill="url(#paint9_linear_1_2)"/>
<path d="M578.588 548.156H581.986L591.667 538.474L592.143 534.363C574.124 518.459 546.623 520.173 530.719 538.193C526.301 543.198 523.094 549.152 521.346 555.596C522.425 555.154 523.62 555.082 524.743 555.392L544.107 552.198C544.107 552.198 545.092 550.568 545.602 550.67C554.215 541.21 568.711 540.107 578.656 548.156L578.588 548.156Z" fill="#F21111"/>
<path d="M605.46 555.596C603.235 547.401 598.665 540.033 592.313 534.397L578.724 547.986C584.462 552.675 587.731 559.737 587.591 567.146V569.558C594.27 569.558 599.685 574.973 599.685 581.652C599.685 588.331 594.27 593.746 587.591 593.746H563.403L560.991 596.192V610.698L563.403 613.11H587.591C604.964 613.245 619.157 599.271 619.293 581.898C619.375 571.368 614.182 561.495 605.46 555.596Z" fill="#6C63FF"/>
<path d="M539.181 612.974H563.369V593.61H539.181C537.458 593.61 535.755 593.239 534.187 592.523L530.79 593.576L521.04 603.258L520.191 606.655C525.659 610.784 532.33 613.004 539.181 612.974Z" fill="#509637"/>
<path d="M539.181 550.16C521.808 550.264 507.808 564.432 507.912 581.805C507.97 591.507 512.501 600.639 520.191 606.553L534.221 592.523C528.134 589.773 525.429 582.609 528.179 576.522C530.93 570.435 538.093 567.73 544.18 570.48C546.862 571.692 549.01 573.84 550.222 576.522L564.252 562.492C558.283 554.688 549.007 550.125 539.181 550.16Z" fill="#59BE36"/>
</g>
<path d="M477.513 488.474C482.555 488.209 486.305 481.574 485.889 473.649C485.767 470.482 484.887 467.389 483.325 464.631L482.742 455.657L482.892 455.619L487.149 413.374C488.139 403.551 484.658 393.708 477.424 386.99C473.12 382.994 468.437 380.862 465.166 385.536C459.737 393.292 464.907 426.449 468.427 445.325L469.244 465.369C467.977 468.276 467.426 471.445 467.635 474.609C468.049 482.531 472.472 488.738 477.513 488.474Z" fill="#B5D2BF"/>
<path d="M451.109 288.807C451.109 288.807 465.636 289.796 468.827 301.578C472.017 313.36 475.78 314.718 471.368 326.946C471.368 326.946 490.25 395.419 486.332 400.384L490.008 418.188L463.02 422.271C463.02 422.271 457.909 411.391 460.624 403.866C463.34 396.34 448.231 367.501 448.231 367.501C448.231 367.501 437.641 334.976 440.094 325.23C442.547 315.484 451.109 288.807 451.109 288.807Z" fill="#6C63FF"/>
</g>
<defs>
<filter id="filter0_d_1_2" x="120" y="451.944" width="232.129" height="204.892" filterUnits="userSpaceOnUse" color-interpolation-filters="sRGB">
<feFlood flood-opacity="0" result="BackgroundImageFix"/>
<feColorMatrix in="SourceAlpha" type="matrix" values="0 0 0 0 0 0 0 0 0 0 0 0 0 0 0 0 0 0 127 0" result="hardAlpha"/>
<feOffset dy="4"/>
<feGaussianBlur stdDeviation="2"/>
<feComposite in2="hardAlpha" operator="out"/>
<feColorMatrix type="matrix" values="0 0 0 0 0 0 0 0 0 0 0 0 0 0 0 0 0 0 0.25 0"/>
<feBlend mode="normal" in2="BackgroundImageFix" result="effect1_dropShadow_1_2"/>
<feBlend mode="normal" in="SourceGraphic" in2="effect1_dropShadow_1_2" result="shape"/>
</filter>
<filter id="filter1_d_1_2" x="-4" y="205.945" width="232.129" height="204.892" filterUnits="userSpaceOnUse" color-interpolation-filters="sRGB">
<feFlood flood-opacity="0" result="BackgroundImageFix"/>
<feColorMatrix in="SourceAlpha" type="matrix" values="0 0 0 0 0 0 0 0 0 0 0 0 0 0 0 0 0 0 127 0" result="hardAlpha"/>
<feOffset dy="4"/>
<feGaussianBlur stdDeviation="2"/>
<feComposite in2="hardAlpha" operator="out"/>
<feColorMatrix type="matrix" values="0 0 0 0 0 0 0 0 0 0 0 0 0 0 0 0 0 0 0.25 0"/>
<feBlend mode="normal" in2="BackgroundImageFix" result="effect1_dropShadow_1_2"/>
<feBlend mode="normal" in="SourceGraphic" in2="effect1_dropShadow_1_2" result="shape"/>
</filter>
<filter id="filter2_d_1_2" x="444" y="468.945" width="232.129" height="204.892" filterUnits="userSpaceOnUse" color-interpolation-filters="sRGB">
<feFlood flood-opacity="0" result="BackgroundImageFix"/>
<feColorMatrix in="SourceAlpha" type="matrix" values="0 0 0 0 0 0 0 0 0 0 0 0 0 0 0 0 0 0 127 0" result="hardAlpha"/>
<feOffset dy="4"/>
<feGaussianBlur stdDeviation="2"/>
<feComposite in2="hardAlpha" operator="out"/>
<feColorMatrix type="matrix" values="0 0 0 0 0 0 0 0 0 0 0 0 0 0 0 0 0 0 0.25 0"/>
<feBlend mode="normal" in2="BackgroundImageFix" result="effect1_dropShadow_1_2"/>
<feBlend mode="normal" in="SourceGraphic" in2="effect1_dropShadow_1_2" result="shape"/>
</filter>
<linearGradient id="paint0_linear_1_2" x1="336.064" y1="0" x2="336.064" y2="669.164" gradientUnits="userSpaceOnUse">
<stop stop-color="white"/>
<stop offset="0.0001" stop-color="white" stop-opacity="0"/>
</linearGradient>
<linearGradient id="paint1_linear_1_2" x1="313.8" y1="466.362" x2="133.157" y2="650.203" gradientUnits="userSpaceOnUse">
<stop stop-color="#D5EDDD"/>
<stop offset="0.9999" stop-color="#F9FCF0" stop-opacity="0.65"/>
<stop offset="1" stop-color="#F11BCF" stop-opacity="0"/>
</linearGradient>
<linearGradient id="paint2_linear_1_2" x1="314.5" y1="465.5" x2="132" y2="651" gradientUnits="userSpaceOnUse">
<stop stop-color="#D5EDDD"/>
<stop offset="0.9999" stop-color="#F9FCF0" stop-opacity="0.65"/>
<stop offset="1" stop-color="#F11BCF" stop-opacity="0"/>
</linearGradient>
<linearGradient id="paint3_linear_1_2" x1="216.559" y1="220.857" x2="-32.9047" y2="452.79" gradientUnits="userSpaceOnUse">
<stop stop-color="#51FFF5" stop-opacity="0.84"/>
<stop offset="1" stop-color="#FCFFFE" stop-opacity="0"/>
</linearGradient>
<linearGradient id="paint4_linear_1_2" x1="217.5" y1="220" x2="-34.5" y2="454" gradientUnits="userSpaceOnUse">
<stop stop-color="#51FFF5" stop-opacity="0.84"/>
<stop offset="1" stop-color="#FCFFFE" stop-opacity="0"/>
</linearGradient>
<linearGradient id="paint5_linear_1_2" x1="378.5" y1="429.5" x2="493.5" y2="775.5" gradientUnits="userSpaceOnUse">
<stop stop-color="#01000D"/>
<stop offset="1" stop-color="#01000D" stop-opacity="0"/>
</linearGradient>
<linearGradient id="paint6_linear_1_2" x1="442" y1="297.5" x2="345" y2="447.5" gradientUnits="userSpaceOnUse">
<stop stop-color="#2518FB"/>
<stop offset="1" stop-color="#6C63FF" stop-opacity="0"/>
</linearGradient>
<linearGradient id="paint7_linear_1_2" x1="328.68" y1="286.201" x2="309" y2="381" gradientUnits="userSpaceOnUse">
<stop stop-color="#6C63FF"/>
<stop offset="1" stop-color="#6C63FF" stop-opacity="0"/>
</linearGradient>
<linearGradient id="paint8_linear_1_2" x1="561.065" y1="470.944" x2="561.065" y2="665.837" gradientUnits="userSpaceOnUse">
<stop stop-color="white"/>
<stop offset="0.911" stop-color="#D4D2F1"/>
</linearGradient>
<linearGradient id="paint9_linear_1_2" x1="560.064" y1="468.945" x2="560.064" y2="665.837" gradientUnits="userSpaceOnUse">
<stop stop-color="white"/>
<stop offset="0.911" stop-color="#D4D2F1"/>
</linearGradient>
<clipPath id="clip0_1_2">
<rect width="672.129" height="669.164" fill="white"/>
</clipPath>
</defs>
</svg>
